Title                            : TRON: Legacy
Year                             : 2010
Genre                            : Action | Adventure | Sci-Fi
iMDB URL                         : http://www.imdb.com/title/tt1104001/

Complete name                    : TRON.Legacy.2010.BRRIP.720P.H264-ZEKTORM.mp4
Format                           : MPEG-4
Format profile                   : Base Media
Codec ID                         : isom
File size                        : 2.73 GiB
Duration                         : 2h 5mn
Overall bit rate                 : 3130 Kbps
Subtitles                        : English (Format: srt)

Video
ID                               : 1
Format                           : AVC
Format/Info                      : Advanced Video Codec
Format profile                   : High@L4.0
Format settings, CABAC           : Yes
Format settings, ReFrames        : 8 frames
Codec ID                         : avc1
Codec ID/Info                    : Advanced Video Coding
Duration                         : 2h 5mn
Bit rate mode                    : Variable
Bit rate                         : 2682 Kbps
Width                            : 1280 pixels
Height                           : 720 pixels
Display aspect ratio             : 16/9
Frame rate mode                  : Constant
Frame rate                       : 23.976 fps
Resolution                       : 24 bits
Colorimetry                      : 4:2:0
Scan type                        : Progressive
Bits/(Pixel*Frame)               : 0.121
Stream size                      : 2.34 GiB (86%)
Title                            : Video
Writing library                  : x264

Audio
ID                               : 2
Format                           : AAC
Format/Info                      : Advanced Audio Codec
Format version                   : Version 4
Format profile                   : LC
Format settings, SBR             : No
Codec ID                         : 40
Duration                         : 2h 5mn
Bit rate mode                    : Variable
Bit rate                         : 445 Kbps
Maximum bit rate                 : 578 Kbps
Channel(s)                       : 6 channels
Channel positions                : Front: L C R, Rear: L R, LFE
Sampling rate                    : 48.0 KHz
Resolution                       : 16 bits
Stream size                      : 398 MiB (14%)
Language                         : English


Screenshots:
 
http://img856.imageshack.us/img856/7629/snaptl1.png
 
http://img41.imageshack.us/img41/9950/snaptl2.png
 
http://img846.imageshack.us/img846/196/snaptl3.png
 
http://img856.imageshack.us/img856/6021/snaptl4.png
